<?xml version="1.0" encoding="utf-8"?>
<!-- Generator: Adobe Illustrator 27.5.0, SVG Export Plug-In . SVG Version: 6.00 Build 0)  -->
<svg version="1.1" xmlns="http://www.w3.org/2000/svg" xmlns:xlink="http://www.w3.org/1999/xlink" x="0px" y="0px"
	 viewBox="0 0 500 500" style="enable-background:new 0 0 500 500;" xml:space="preserve">
<g id="BACKGROUND">
	<rect style="fill:#FFFFFF;" width="500" height="500"/>
</g>
<g id="OBJECTS">
	<g>
		<g>
			<g style="opacity:0.4;">
				<path style="fill:#ACD5D4;" d="M209.371,112.572c-18.946,6.549-32.337-8.151-51.2,0.582s-24.702,41.919-33.685,64.043
					S97.089,198.156,67.447,209.8c-29.642,11.644-55.692,79.762-28.744,130.414c26.947,50.652,72.758,82.673,132.043,57.056
					c59.285-25.617,135.187,7.569,170.219,19.795c35.032,12.226,103.748-13.973,115.426-72.776
					c11.677-58.803-39.972-84.42-41.769-112.948c-1.796-28.528-4.491-79.762-61.081-80.344c-56.59-0.582-34.402-63.66-79.944-65.207
					C240.576,84.668,222.844,107.914,209.371,112.572z"/>
				<path style="fill:#ACD5D4;" d="M366.672,101.172c-30.673-4.949-45.751,23.955-26.468,24.561
					c19.282,0.605,39.987-1.892,43.22,13.062c3.233,14.955,31.264-10.602,12.885-17.546
					C377.929,114.304,391.062,105.107,366.672,101.172z"/>
				<path style="fill:#ACD5D4;" d="M435.721,199.015c-13.246,6.951-0.959,59.694,15.67,60.523
					c16.629,0.829,9.274-17.411,2.878-28.189C447.873,220.571,449.153,191.968,435.721,199.015z"/>
				<path style="fill:#ACD5D4;" d="M423.74,143.748c-11.369,1.902-8.634,20.727,1.279,18.24
					C434.933,159.501,433.654,142.09,423.74,143.748z"/>
				<path style="fill:#ACD5D4;" d="M205.326,70.195c-26.037,13.672-20.786,38.967,6.396,24.458
					C238.904,80.144,230.589,56.929,205.326,70.195z"/>
				<path style="fill:#ACD5D4;" d="M83.988,141.081c-28.027,12.464-49.567,38.967-40.933,53.061
					c8.634,14.094,21.745-9.949,42.851-10.778S127.799,121.598,83.988,141.081z"/>
				<path style="fill:#ACD5D4;" d="M226.43,402.934c-39.412,2.107-51.758,33.547-4.501,30.63
					C269.187,430.647,281.001,400.017,226.43,402.934z"/>
			</g>
			<path style="opacity:0.4;fill:#ACD5D4;" d="M214.407,168.344c-16.089,5.049-27.46-6.284-43.479,0.449
				c-16.019,6.733-20.977,32.318-28.605,49.375c-7.628,17.057-23.265,16.159-48.437,25.136
				c-25.172,8.977-47.293,61.494-24.409,100.545c22.884,39.051,61.786,63.738,112.13,43.988
				c50.344-19.75,114.8,5.835,144.549,15.261c29.749,9.426,88.102-10.773,98.019-56.108s-33.944-65.085-35.47-87.079
				s-3.814-61.494-51.87-61.943c-48.056-0.449-32.664-46.297-67.888-50.273C241.104,144.555,225.849,164.753,214.407,168.344z"/>
		</g>
		<g>
			<path style="fill:#18203D;" d="M267.637,186.543c0,0,8.076,6.27,15.062,7.752c6.986,1.482-5.75,20.726-5.75,20.726
				s-14.465,5.041-14.465,15.342c0,10.301,4.822,12.712-2.849,18.63c-7.671,5.918-10.301,13.808,5.698,13.808
				c15.999,0,26.081-16.657,26.081-16.657l0.877-52.163c0,0-7.452-15.999-7.452-16.657c0-0.658-5.918-1.534-5.918-1.534
				L267.637,186.543z"/>
			<path style="fill:#18203D;" d="M254.428,254.232c-10.164,4.491-40.944,57.742-46.177,72.209
				c-5.233,14.467,5.54,24.625,18.161,17.853c12.62-6.772,33.859-37.552,33.859-37.552L254.428,254.232z"/>
			<g>
				<path style="fill:#E5D157;" d="M310.958,393.898h-53.986c0,0,2.297-42.12,1.914-64.329c-0.161-9.164,0.911-21.481,2.656-33.562
					V296c2.488-17.186,6.346-33.891,9.975-40.329c6.186-10.97,6.086-13.78,17.156-14.905c8.88-0.903,26.725-5.351,35.039,3.56
					c2.013,2.151,3.46,5.083,4.096,9.041C329.415,263.381,310.958,393.898,310.958,393.898z"/>
				<path style="opacity:0.3;fill:#4A6C8F;" d="M310.958,393.898h-53.986c0,0,2.297-42.12,1.914-64.329
					c-0.161-9.164,0.911-21.481,2.656-33.562c3.675,15.066,11.767,21.872,17.684,27.093c10.465,9.232,41.232-78.767,41.232-78.767
					s1.171-0.031,3.253-0.008c2.013,2.151,3.46,5.083,4.096,9.041C329.415,263.381,310.958,393.898,310.958,393.898z"/>
			</g>
			<g>
				<path style="fill:#18203D;" d="M286.648,204.335c-0.728,7.055-5.887,12.302-11.522,11.72c-5.635-0.582-9.612-6.772-8.884-13.826
					c0.728-7.054,5.887-12.301,11.522-11.72C283.399,191.09,287.376,197.28,286.648,204.335z"/>
				<g>
					<path style="fill:#18203D;" d="M274.098,213.566l-6.154,6.154c-0.426,0.426-1.118,0.426-1.544,0l0,0
						c-0.427-0.426-0.427-1.118,0-1.544l6.154-6.154c0.426-0.426,1.118-0.426,1.544,0
						C274.524,212.448,274.524,213.14,274.098,213.566z"/>
				</g>
				<path style="fill:#FFFFFF;stroke:#272525;stroke-miterlimit:10;" d="M285.88,203.02c-0.42,4.07-3.396,7.097-6.647,6.762
					c-3.251-0.336-5.546-3.907-5.126-7.977c0.42-4.07,3.396-7.097,6.647-6.762C284.005,195.379,286.3,198.95,285.88,203.02z"/>
			</g>
			<g>
				<g>
					<path style="fill:#D15735;" d="M267.942,272.46l-4.402,38.652c0,0,1.554,19.95,2.235,36.945c0.13,3.246,0.23,6.385,0.283,9.255
						c0.314,17.914,1.569,38.338,1.569,38.338l-30.484-0.628c0,0,14.454-56.252,14.14-66.625
						c-0.161-5.206-1.585-11.276-2.886-16.957c-1.286-5.634-2.457-10.871-2.144-14.469c0.635-7.227,6.921-21.052,6.921-21.052
						s-0.635-20.118,1.256-21.688c1.883-1.569,28.418-11.86,28.418-11.86L267.942,272.46z"/>
					<path style="opacity:0.3;fill:#4A6C8F;" d="M237.144,395.024c0,0,14.454-56.252,14.14-66.625
						c-0.161-5.206-1.585-11.276-2.886-16.957c4.662,11.843,11.965,26.871,17.378,36.616c0.13,3.246,0.23,6.385,0.283,9.255
						c0.314,17.914,1.569,38.338,1.569,38.338L237.144,395.024z"/>
				</g>
				<path style="fill:#FC8165;" d="M285.541,239.462c-2.889,0.482-17.396,18.298-24.026,26.609
					c-1.821,2.283-1.385,5.619,0.961,7.357l4.209,3.118l-8.853,3.178c-2.064,0.741-3.43,2.705-3.413,4.897
					c0.087,11.269,1.239,46.174,11.638,72.692c0,0-0.628-51.54,5.657-79.51C277.998,249.832,285.541,239.462,285.541,239.462z"/>
			</g>
			<g>
				<path style="fill:#D15735;" d="M348.707,267.43c-0.23,1.424-1.133,4.364-2.45,8.291c-5.964,17.692-20.494,55.418-20.494,64.933
					c0,11.629,13.206,54.997,13.206,54.997h-58.457l4.402-38.652l4.126-15.992l0.903-3.491l22.622-88.941l-0.942-7.541
					c0,0,16.658,4.08,26.718,8.168C348.393,253.291,349.962,259.576,348.707,267.43z"/>
				<path style="opacity:0.3;fill:#4A6C8F;" d="M334.659,380.846c2.381,8.475,4.31,14.806,4.31,14.806h-58.457l4.402-38.652
					l0.566-2.182l3.56-13.81l12.563-0.436l15.349-0.536c0,0-20.601-5.213-19.361-8.436c1.24-3.23,42.442-31.525,43.437-53.611
					l5.229-2.266c-5.964,17.692-20.494,55.418-20.494,64.933c0,1.891,0.352,4.624,0.934,7.87
					C328.336,357.619,331.819,370.748,334.659,380.846z"/>
				<path style="opacity:0.3;fill:#4A6C8F;" d="M334.659,380.846c-16.03-8.291-38.53-20.379-49.179-26.029l3.56-13.81l12.563-0.436
					c7.64,2.442,16.712,5.328,25.094,7.954C328.336,357.619,331.819,370.748,334.659,380.846z"/>
				<path style="fill:#FC8165;" d="M310.368,239.462c0,0-16.342,59.711-25.456,117.537c0,0,25.243-42.071,33.334-64.741
					c0.782-2.192-0.007-4.633-1.919-5.96l-8.159-5.666l8.969-2.99c2.432-0.811,3.9-3.282,3.443-5.805
					c-1.675-9.243-5.537-29.97-6.755-31.432C312.254,238.519,310.368,239.462,310.368,239.462z"/>
			</g>
			<g>
				<g>
					<path style="fill:#DD9091;" d="M293.594,323.289l-0.1,0.71l-2.62,18.39c0,0-17.96-4.09-19.1-6.37
						c-1.14-2.27-1.14-5.22-1.14-5.22s-1.59-2.05-2.27-3.19c-0.68-1.13-1.13-5.91-1.13-5.91s-11.6-6.13-12.97-7.04
						c-0.7-0.46-1.68-1.7-2.12-2.8c-0.37-0.92-0.36-1.73,0.53-1.93c0.13-0.03,0.29-0.05,0.46-0.05c2.73,0,17.96,6.14,17.96,6.14
						s7.04-2.95,8.87-2.72c1.34,0.16,8.08,5.21,11.56,8.08C292.734,322.379,293.545,323.119,293.594,323.289z"/>
					<path style="fill:#D36E75;" d="M293.595,323.292l-2.725,19.093c0,0-17.96-4.088-19.093-6.362
						c-1.141-2.274-1.141-5.229-1.141-5.229s-1.592-2.044-2.274-3.185c-0.681-1.133-1.133-5.91-1.133-5.91
						s-11.598-6.132-12.961-7.043c-1.279-0.85-3.544-4.295-1.592-4.731c6.002,5.183,17.898,9.715,17.898,9.715
						s4.708,10.503,7.969,12.677c2.901,1.929,7.227-1.715,12.976-10.94C292.73,322.381,293.542,323.116,293.595,323.292z"/>
					<path style="fill:#FFFFFF;" d="M293.594,323.289l-0.1,0.71c-0.08,0.1-0.13,0.15-0.13,0.15s-11.38-9.02-13.86-9.28
						c-2.49-0.26-8.76,2.09-8.76,2.09s-13.65-5.38-18.6-5.1c-0.37-0.92-0.36-1.73,0.53-1.93c0.13-0.03,0.29-0.05,0.46-0.05
						c2.73,0,17.96,6.14,17.96,6.14s7.04-2.95,8.87-2.72c1.34,0.16,8.08,5.21,11.56,8.08
						C292.734,322.379,293.545,323.119,293.594,323.289z"/>
				</g>
				<g>
					<path style="fill:#D15735;" d="M369.139,363.284c-2.519,11.001-21.688,5.971-40.543-1.569
						c-18.855-7.548-43.054-18.542-43.054-18.542l2.756-10.205v-0.008l2.978-11.016l0.551-2.029l48.398,15.709l-0.008-0.008
						c-0.122-0.521-5.122-21.029-7.571-37.94c-0.597-4.126-1.041-8.038-1.225-11.391c-0.796-14.607,8.283-28.762,11.108-32.796
						c0.528-0.743,0.834-1.141,0.834-1.141c8.804,3.453,14.461,10.679,17.286,37.083c1.967,18.297,6.492,41.416,8.245,57.554
						C369.675,354.136,369.912,359.908,369.139,363.284z"/>
					<path style="fill:#FFFFFF;" d="M357.396,344.743c-0.444-0.138-14.492-4.746-21.336-6.943
						c-5.397-1.738-32.819-11.56-44.784-15.854l0.551-2.029l48.398,15.709C344.81,337.638,357.013,344.528,357.396,344.743z"/>
					<path style="fill:#FFFFFF;" d="M368.894,346.986c-4.394-9.676-9.5-40.459-11.491-61.052
						c-1.715-17.791-7.686-27.437-14.875-32.444c0.528-0.743,0.834-1.141,0.834-1.141c8.804,3.453,14.461,10.679,17.286,37.083
						C362.617,307.729,367.141,330.848,368.894,346.986z"/>
					<path style="opacity:0.3;fill:#4A6C8F;" d="M369.139,363.284c-2.519,11.001-21.688,5.971-40.543-1.569
						c-18.855-7.548-43.054-18.542-43.054-18.542l2.756-10.205c9.24,5.359,59.047,24.199,70.507,23.778
						c5.757-0.214,8.597-4.922,10.09-9.761C369.675,354.136,369.912,359.908,369.139,363.284z"/>
					<path style="opacity:0.3;fill:#4A6C8F;" d="M356.362,337.202l-16.138-1.577c0,0,0,0-0.008-0.008
						c-0.122-0.521-5.122-21.029-7.571-37.94C340.753,312.414,356.362,337.202,356.362,337.202z"/>
				</g>
			</g>
			<g>
				<path style="fill:#DD9091;" d="M307.965,220.012L309.197,245c0,0-1.723,1.723-4.616,3.414c-2.603,1.523-6.14,3.031-10.228,3.269
					c-8.658,0.498-10.886-2.97-10.886-2.97l0.1-8.781l0.145-12.501c0,0-3.56,0.475-6.591-1.83h-0.008
					c-1.891-1.432-3.567-3.943-4.042-8.314c-1.018-9.416,1.347-29.481,9.462-36.7l0.008-0.008c1.699-1.516,3.652-2.465,5.872-2.633
					c0,0,2.817-0.421,6.53-0.551c6.959-0.237,17.079,0.528,17.722,6.982C313.653,194.275,307.965,220.012,307.965,220.012z"/>
				<path style="fill:#D36E75;" d="M307.965,220.012L309.197,245c0,0-1.723,1.723-4.616,3.414
					c-2.894-2.664-4.494-6.974-3.935-13.259c1.401-15.694-6.729-10.289-6.729-10.289c5.037-8.092,7.204-33.623,1.026-47.471
					c6.959-0.237,17.079,0.528,17.722,6.982C313.653,194.275,307.965,220.012,307.965,220.012z"/>
				<path style="fill:#FFFFFF;" d="M277.113,225.601c-1.891-1.432-3.567-3.943-4.042-8.314c-1.018-9.416,1.347-29.481,9.462-36.7
					C275.965,193.586,273.676,213.329,277.113,225.601z"/>
				<path style="fill:#D36E75;" d="M295.9,227.086c-2.565,4.233-6.829,10.013-12.333,12.846l0.145-12.501c0,0,4.67,0.1,10.205-2.565
					C295.302,224.2,296.696,225.769,295.9,227.086z"/>
			</g>
			<g>
				<path style="fill:#18203D;" d="M279.606,221.329h-3.04c-1.364,0-2.47-1.106-2.47-2.47l0,0c0-1.364,1.106-2.47,2.47-2.47h3.04
					c1.364,0,2.47,1.106,2.47,2.47l0,0C282.076,220.224,280.97,221.329,279.606,221.329z"/>
				<g>
					<path style="fill:#18203D;" d="M275.874,220.04h-8.703c-0.603,0-1.092-0.489-1.092-1.092l0,0c0-0.603,0.489-1.092,1.092-1.092
						h8.703c0.603,0,1.092,0.489,1.092,1.092S276.478,220.04,275.874,220.04z"/>
				</g>
			</g>
			<g>
				<g>
					<path style="fill:#82435C;" d="M329.806,172.304c0,0.75-0.092,1.478-0.268,2.174c-0.421,1.646-1.301,3.108-2.503,4.241
						c-1.569,1.47-3.698,2.381-6.025,2.381c-4.853,0-8.796-3.935-8.796-8.796c0-0.26,0.008-0.52,0.038-0.773
						c0.146-1.768,0.827-3.384,1.868-4.693c1.608-2.029,4.103-3.33,6.89-3.33C325.871,163.508,329.806,167.443,329.806,172.304z"/>
					<path style="fill:#FFFFFF;" d="M329.806,172.304c0,0.75-0.092,1.478-0.268,2.174c-0.36-3.621-2.059-7.273-6.836-8.689
						c-3.743-1.11-6.584-0.253-8.582,1.049c1.608-2.029,4.103-3.33,6.89-3.33C325.871,163.508,329.806,167.443,329.806,172.304z"/>
					<path style="fill:#4B1C4A;" d="M327.034,178.719c-1.569,1.47-3.698,2.381-6.025,2.381c-4.853,0-8.796-3.935-8.796-8.796
						c0-0.26,0.008-0.52,0.038-0.773c2.901-1.967,7.411-4.019,11.376-1.516C326.766,171.997,327.57,175.412,327.034,178.719z"/>
				</g>
				<g>
					<path style="fill:#82435C;" d="M367.669,253.681c0,0.421-0.015,0.842-0.031,1.24c0,0,0,0.008,0,0.015h-0.008
						c-0.658,12.011-10.702,14.515-10.702,14.515c-1.011-6.874-11.583-18.128-19.468-15.104c-7.893,3.016-19.981,3.698-19.307-5.03
						c0.674-8.735-9.401-6.722-13.091-12.93c-3.69-6.209,1.508-17.278,1.508-17.278l1.684-12.762c0,0-0.077-0.13-0.23-0.375
						c-0.589-0.926-2.243-3.483-4.639-6.676c-3.024-4.027-1.508-12.256-1.508-12.256s0.819-6.063,1.983-9.133
						c-0.23,0.283-3.958,4.984-6.247,10.955c-3.835,1.294-9.608,2.442-14.538,0.023c-2.105-1.026-4.142-1.684-6.009-2.082
						c0.85-4.241,3.154-8.138,3.292-8.375c-2.848,2.075-4.708,5.566-5.719,7.969c-4.149-0.513-7.005,0.145-7.005,0.145
						s0-0.008,0.008-0.031c4.387-20.272,35.743-15.418,35.743-15.418c19.299-0.498,24,17.125,21.144,29.045
						c-2.855,11.912,3.353,27.521,12.762,25.845c9.393-1.676,10.909,7.717,13.596,11.414
						C353.568,241.088,367.669,240.583,367.669,253.681z"/>
					<path style="fill:#FFFFFF;" d="M367.669,253.681c0,0.421-0.015,0.842-0.031,1.24c-1.049-13.611-15.885-10.388-19.491-17.47
						c-3.736-7.349-2.863-9.095-10.58-8.972c-7.724,0.13-13.451-5.351-15.074-16.559c-1.615-11.207,1.623-17.309-1.738-27.889
						c-3.361-10.588-18.304-14.201-33.998-11.46c-15.196,2.656-18.894,13.275-19.116,13.941
						c4.387-20.272,35.743-15.418,35.743-15.418c19.299-0.498,24,17.125,21.144,29.045c-2.855,11.912,3.353,27.521,12.762,25.845
						c9.393-1.676,10.909,7.717,13.596,11.414C353.568,241.088,367.669,240.583,367.669,253.681z"/>
					<path style="fill:#4B1C4A;" d="M367.631,254.937c-0.658,12.011-10.702,14.515-10.702,14.515
						c-1.011-6.874-11.583-18.128-19.468-15.104c-7.893,3.016-19.981,3.698-19.307-5.03c0.674-8.735-9.401-6.722-13.091-12.93
						c-3.69-6.209,1.508-17.278,1.508-17.278l1.684-12.762c0,0-0.077-0.13-0.23-0.375c6.155,4.456,13.206,7.089,10.764,15.648
						c-4.088,14.308,16.352,3.07,18.603,15.127s10.22,6.132,17.378,13.29C359.524,254.791,364.554,257.47,367.631,254.937z"/>
				</g>
			</g>
			<g>
				<path style="fill:#E5D157;" d="M315.094,193.116c0,0,0.102-17.078-11.692-23.59h-9.583c0,0,13.399,4.595,13.392,24.696
					L315.094,193.116z"/>
				<ellipse style="fill:#18203D;" cx="311.654" cy="204.314" rx="10.257" ry="12.841"/>
				<ellipse style="fill:#E5D157;" cx="315.094" cy="203.085" rx="5.918" ry="7.409"/>
			</g>
			<g>
				<g>
					<path style="fill:#DD9091;" d="M267.643,219.928c-0.597-1.079-4.379,0.612-7.778,3.575c-3.981,3.46-4.371,3.69-4.371,3.69
						s-4.31,0.972-4.853,1.079c-0.536,0.107-1.508,1.83-1.508,1.83s-1.722,0.322-3.008,0.972c-1.294,0.643-3.346,3.016-3.346,3.016
						s-2.473,0.429-3.23,1.286c-0.697,0.804-3.162,8.857-3.59,11.889c-0.038,0.237-0.061,0.436-0.069,0.605
						c-0.107,2.373,0.214,4.203,0.214,4.203l-0.413,1.018v0.008l-2.059,5.114l13.596,2.687c0,0,2.327-3.552,5.573-5.918
						c1.975-1.439,5.305-3.996,6.033-4.846c1.899-2.251,3.46-13.129,4.67-15.035c1.21-1.906,0-3.805-1.562-2.595
						c-0.253,0.199-0.589,0.574-0.98,1.064c-0.015-0.046-0.031-0.077-0.046-0.115v-0.008c-0.008-0.038-0.023-0.077-0.038-0.115
						c-0.176-0.436-1.003-1.37-1.937-2.327c3.33-3.889,8.253-8.643,8.72-10.274C267.758,220.38,267.751,220.112,267.643,219.928z
						 M255.709,241.509c0,0-0.23-1.86-0.031-4.241v-0.031c0.038,0.031,0.084,0.046,0.123,0.077c0.008,0.008,0.015,0.008,0.015,0.008
						c0.704,0.436,1.546,0.52,2.258,0.39C256.788,239.718,255.709,241.509,255.709,241.509z M259.307,235.216h0.008
						c0.145,0.038,0.26,0.054,0.383,0.069c-0.161,0.237-0.329,0.459-0.497,0.704c-0.306-0.329-0.727-0.735-1.202-1.179l0.184,0.031
						C258.618,235.025,258.993,235.147,259.307,235.216z"/>
					<path style="fill:#D36E75;" d="M263.502,235.101c-1.21,1.906-2.771,12.785-4.67,15.035c-0.727,0.85-4.057,3.407-6.033,4.846
						c-3.246,2.366-5.573,5.918-5.573,5.918l-13.596-2.687l2.059-5.114v-0.008c5.964-2.389,7.541-4.517,7.541-5.657
						c0-1.202-0.015-8.069-0.015-8.069s2.289-1.01,2.802-0.865c0.505,0.153,5.229,1.324,5.811,1.079
						c0.589-0.245-2.856-3.093-2.856-3.093s0.536-0.804,1.738-0.804c1.072,0,4.272,1.294,4.968,1.585
						c-0.199,2.381,0.031,4.241,0.031,4.241s1.079-1.791,2.366-3.797c0,0,1.202-0.421,1.202-0.643c0-0.122-0.038-0.635-0.077-1.079
						c-0.031-0.383-0.054-0.712-0.054-0.712l0.161-0.061h0.008l1.217-0.436l0.383-1.324c0.015,0.038,0.031,0.069,0.046,0.115
						c0.391-0.49,0.727-0.865,0.98-1.064C263.502,231.297,264.711,233.195,263.502,235.101z"/>
					<g>
						<path style="fill:none;stroke:#AF565B;stroke-width:2;stroke-linecap:round;stroke-linejoin:round;stroke-miterlimit:10;" d="
							M245.905,250.674c0,0,3.339-4.093,8.185-6.139"/>
						<path style="fill:none;stroke:#AF565B;stroke-width:2;stroke-linecap:round;stroke-linejoin:round;stroke-miterlimit:10;" d="
							M242.997,244.427l0.215-5.062l2.8-0.862c0,0,5.493,1.723,5.816,1.077c0.323-0.646-4.847-4.954-4.847-4.954l-2.908-0.646"/>
						<path style="fill:none;stroke:#AF565B;stroke-width:2;stroke-linecap:round;stroke-linejoin:round;stroke-miterlimit:10;" d="
							M250.536,230.964l4.631,1.4c0,0,3.662,3.016,4.308,3.985c0.646,0.969-1.939,2.046-3.662,0.969
							c-1.723-1.077-4.093-1.508-4.093-1.508l-2.935,0.047"/>
						<path style="fill:none;stroke:#AF565B;stroke-width:2;stroke-linecap:round;stroke-linejoin:round;stroke-miterlimit:10;" d="
							M256.029,228.164c0,0,4.416,4.093,4.846,5.17s0.323,2.8-2.693,1.508"/>
					</g>
					<path style="fill:#FFFFFF;" d="M260.855,224.143c-2.519,1.845-4.487,3.583-4.487,3.583l1.454,2.07
						c-0.176-0.084-2.94-1.5-3.43-1.585c-0.505-0.084-3.774,1.424-3.774,1.424l-0.926,1.087c0,0-4.111,1.768-4.693,2.182
						c-0.59,0.421-1.347,1.761-1.347,1.761s-1.003,0.168-3.016,1.516c-1.232,0.819-3.277,6.721-4.677,11.085
						c0.429-3.032,2.894-11.085,3.59-11.889c0.758-0.857,3.23-1.286,3.23-1.286s2.052-2.373,3.346-3.016
						c1.286-0.651,3.008-0.972,3.008-0.972s0.972-1.722,1.508-1.83c0.543-0.107,4.853-1.079,4.853-1.079s0.391-0.23,4.371-3.69
						c3.399-2.963,7.181-4.654,7.778-3.575C265.469,220.786,262.677,222.811,260.855,224.143z"/>
				</g>
				<g>
					<path style="fill:#D15735;" d="M251.651,259.339c0,0-0.368,1.087-1.003,2.978c-0.008,0.008-0.015,0.015-0.008,0.023
						c-3.667,10.886-16.207,48.306-19.613,60.103c-4.004,13.849-5.542,28.93-23.395,23.387c-7.311-2.266-9.401-8.674-8.674-16.612
						c0.076-0.873,0.191-1.768,0.337-2.679c1.738-10.97,7.985-24.145,13.014-33.378c9.232-16.934,18.411-39.364,18.411-39.364
						l2.756,0.727L251.651,259.339z"/>
					<path style="opacity:0.3;fill:#4A6C8F;" d="M250.641,262.339c-3.667,10.886-16.207,48.306-19.613,60.103
						c-4.004,13.849-5.542,28.93-23.395,23.387c-7.311-2.266-9.401-8.674-8.674-16.612c6.698,9.608,20.157,4.907,26.909-17.975
						C231.785,291.208,244.884,270.737,250.641,262.339z"/>
					<path style="fill:#FFFFFF;" d="M233.477,254.523c-4.532,10.787-14.798,34.687-22.499,48.781
						c-7.173,13.121-10.404,20.203-11.682,23.234c1.738-10.97,7.985-24.145,13.014-33.378c9.232-16.934,18.411-39.364,18.411-39.364
						L233.477,254.523z"/>
				</g>
			</g>
		</g>
		<g>
			<g>
				<path style="fill:#18203D;" d="M131.22,393.904c0,0-15.457,1.915-20.228-0.943c-4.771-2.858,1.004-4.847-1.365-7.42
					c-2.369-2.573-13.514-2.414-16.198-6.362c-2.684-3.947,4.819-5.804,2.009-9.694c-2.81-3.891-14.92-2.843-19.437-8.847
					c-4.517-6.003,3.974-6.334,6.099-8.35c2.125-2.016-0.949-5.485-8.135-8.318c-7.185-2.834-11.79-9.707-10.944-12.209
					c0.846-2.502,7.331,0.797,8.064-1.957c0.732-2.755-13.92-12.084-9.776-18.04c4.144-5.955,14.598,3.139,18.265,7.251
					c3.667,4.112-0.86-7.647-0.21-9.91c0.65-2.263,5.965-3.591,10.92,9.795c4.955,13.385,6.933,16.437,9.834,15.134
					c2.9-1.304-0.891-8.391,1.896-9.947c2.787-1.556,7.619,5.822,8.957,16.892c1.338,11.07,7.258,10.077,7.297,6.118
					c0.04-3.959,5.374-7.266,7.249,1.289c1.875,8.555-0.056,13.364,1.134,16.012c1.19,2.648,3.317-2.4,6.38-1.655
					c3.063,0.745,4.625,18.384,4.761,24.083C137.928,392.525,131.22,393.904,131.22,393.904z"/>
				<path style="fill:#18203D;" d="M130.721,371.242c-0.682-0.09-1.305,0.392-1.394,1.073l-1.361,10.488
					c-1.041-1.26-2.082-2.514-3.12-3.76l0.742-7.466c0.068-0.684-0.431-1.293-1.115-1.361c-0.682-0.067-1.293,0.431-1.361,1.115
					l-0.501,5.038c-0.422-0.503-0.843-1.005-1.264-1.505l0.556-15.378c0.025-0.687-0.512-1.264-1.199-1.288
					c-0.686-0.025-1.264,0.511-1.289,1.198l-0.456,12.637c-1.741-2.057-3.467-4.084-5.174-6.076l0.151-9.965
					c0.01-0.687-0.539-1.253-1.225-1.263c-0.688-0.012-1.253,0.538-1.263,1.225l-0.108,7.155c-1.217-1.413-2.422-2.807-3.612-4.178
					l-0.742-18.47c-0.028-0.687-0.607-1.221-1.293-1.193c-0.686,0.026-1.22,0.606-1.193,1.293l0.618,15.371
					c-1.93-2.211-3.813-4.356-5.639-6.424l-1.381-9.252c-0.101-0.68-0.735-1.149-1.414-1.047c-0.675,0.103-1.148,0.735-1.047,1.415
					l0.816,5.467c-1.195-1.345-2.359-2.652-3.49-3.917l-2.59-15.979c-0.11-0.678-0.749-1.139-1.427-1.029
					c-0.678,0.115-1.139,0.749-1.029,1.428l1.969,12.149c-1.397-1.553-2.731-3.03-3.994-4.424l-1.396-9.308
					c-0.102-0.68-0.736-1.148-1.415-1.046c-0.679,0.104-1.148,0.735-1.046,1.415l0.844,5.623c-6.34-6.952-10.27-11.125-10.38-11.242
					c-0.472-0.5-1.26-0.524-1.759-0.051c-0.5,0.472-0.523,1.259-0.051,1.759c0.112,0.119,4.203,4.464,10.776,11.677l-5.347-0.763
					c-0.678-0.097-1.31,0.376-1.407,1.056c-0.097,0.68,0.376,1.31,1.056,1.407l8.323,1.187c1.38,1.522,2.844,3.144,4.383,4.857
					l-10.763-1.846c-0.678-0.116-1.321,0.339-1.437,1.016c-0.116,0.677,0.339,1.32,1.016,1.436l13.858,2.377
					c1.283,1.435,2.607,2.922,3.97,4.458l-6.708-0.964c-0.68-0.098-1.311,0.374-1.409,1.054c-0.098,0.681,0.375,1.311,1.055,1.409
					l9.61,1.381c1.954,2.214,3.973,4.514,6.046,6.891l-14.833-0.344c-0.686-0.015-1.257,0.529-1.273,1.215
					c-0.016,0.687,0.528,1.257,1.215,1.273l17.1,0.396c1.346,1.551,2.712,3.131,4.093,4.737l-7.347,0.65
					c-0.686,0.06-1.19,0.666-1.13,1.349c0.061,0.685,0.665,1.191,1.349,1.13l9.12-0.807c1.822,2.127,3.667,4.295,5.527,6.496
					l-12.709,0.726c-0.687,0.04-1.21,0.627-1.171,1.313c0.04,0.687,0.627,1.211,1.313,1.172l14.572-0.833
					c0.48,0.571,0.961,1.144,1.443,1.719l-5.151,0.199c-0.687,0.026-1.222,0.605-1.196,1.291c0.027,0.687,0.605,1.222,1.292,1.195
					l7.069-0.274c1.146,1.375,2.294,2.759,3.443,4.151l-10.047,1.263c-0.682,0.086-1.165,0.708-1.079,1.39
					c0.086,0.682,0.708,1.165,1.39,1.08l11.607-1.459c1.316,1.603,2.632,3.215,3.944,4.835c0.363,0.448,0.974,0.578,1.476,0.352
					c0.096-0.043,0.189-0.099,0.274-0.169c0.534-0.433,0.616-1.216,0.183-1.75c-1.347-1.662-2.698-3.317-4.048-4.962l1.661-12.799
					C131.883,371.954,131.403,371.33,130.721,371.242z"/>
			</g>
			<g>
				<path style="fill:#18203D;" d="M136.462,389.031c0,0-10.203-9.31-11.029-14.172c-0.826-4.862,3.845-2.118,4.212-5.198
					c0.367-3.08-6.166-10.497-5.054-14.581c1.112-4.084,6.689-0.1,7.69-4.236c1.001-4.137-6.687-11.691-5.247-18.196
					c1.44-6.505,6.559-0.975,9.143-0.705c2.584,0.269,3.148-3.802,0.914-10.277c-2.234-6.475-0.259-13.54,1.915-14.413
					c2.173-0.873,3.69,5.399,5.968,4.304c2.278-1.095,0.115-16.346,6.517-16.988c6.402-0.642,6.302,11.645,5.647,16.487
					c-0.656,4.841,4.656-4.989,6.555-5.855c1.9-0.867,5.859,1.948-0.302,13.005c-6.161,11.056-7.076,14.149-4.526,15.351
					c2.551,1.202,5.139-5.439,7.794-4.458c2.655,0.981,0.471,8.49-6.216,15.774c-6.687,7.284-2.604,10.7,0.086,8.444
					c2.69-2.256,7.994-0.569,3.311,5.627c-4.683,6.196-9.036,7.668-10.134,9.997c-1.098,2.329,3.53,0.851,4.794,3.344
					c1.264,2.493-9.719,13.717-13.48,17.094C141.258,392.755,136.462,389.031,136.462,389.031z"/>
				<path style="fill:#18203D;" d="M151.441,375.627c-0.333-0.512-1.017-0.653-1.527-0.32l-7.85,5.13
					c0.249-1.428,0.493-2.852,0.734-4.27l5.458-3.805c0.5-0.348,0.622-1.036,0.274-1.536c-0.348-0.498-1.036-0.623-1.536-0.274
					l-3.683,2.568c0.096-0.574,0.191-1.148,0.285-1.719l10.681-8.492c0.477-0.38,0.556-1.074,0.177-1.55
					c-0.379-0.477-1.073-0.557-1.551-0.177l-8.777,6.979c0.382-2.359,0.752-4.691,1.11-6.989l6.801-5.644
					c0.469-0.39,0.533-1.085,0.144-1.554c-0.388-0.47-1.085-0.534-1.554-0.145l-4.883,4.053c0.25-1.635,0.494-3.251,0.732-4.843
					l12.016-11.15c0.447-0.414,0.473-1.113,0.058-1.559c-0.413-0.447-1.112-0.473-1.559-0.058l-10,9.279
					c0.377-2.575,0.736-5.081,1.077-7.503l5.437-6.265c0.4-0.46,0.35-1.157-0.11-1.557c-0.458-0.395-1.157-0.349-1.557,0.11
					l-3.213,3.702c0.217-1.58,0.426-3.118,0.627-4.61l9.272-10.959c0.394-0.465,0.336-1.161-0.13-1.555
					c-0.468-0.39-1.162-0.335-1.555,0.13l-7.049,8.332c0.241-1.837,0.467-3.587,0.677-5.242l5.465-6.308
					c0.399-0.461,0.349-1.158-0.111-1.557c-0.461-0.398-1.157-0.349-1.557,0.111l-3.302,3.811c1.028-8.28,1.574-13.334,1.589-13.475
					c0.065-0.606-0.373-1.151-0.98-1.215c-0.606-0.065-1.15,0.374-1.214,0.979c-0.016,0.144-0.583,5.406-1.654,13.993l-2.57-4.042
					c-0.326-0.513-1.008-0.666-1.523-0.339c-0.514,0.327-0.666,1.008-0.339,1.523l3.999,6.292c-0.23,1.807-0.478,3.729-0.745,5.753
					l-4.963-8.316c-0.312-0.524-0.99-0.694-1.513-0.382c-0.523,0.312-0.694,0.989-0.382,1.512l6.389,10.707
					c-0.227,1.692-0.465,3.441-0.714,5.245l-3.218-5.075c-0.326-0.515-1.008-0.667-1.522-0.341
					c-0.515,0.327-0.668,1.008-0.341,1.523l4.611,7.271c-0.365,2.593-0.75,5.28-1.157,8.046l-8.321-10.191
					c-0.386-0.471-1.081-0.542-1.553-0.157c-0.472,0.385-0.542,1.08-0.157,1.553l9.593,11.749c-0.269,1.802-0.546,3.632-0.831,5.489
					l-4.674-4.575c-0.436-0.428-1.135-0.418-1.56,0.016c-0.427,0.436-0.419,1.135,0.017,1.561l5.802,5.679
					c-0.383,2.454-0.78,4.947-1.19,7.469l-7.817-8.144c-0.423-0.44-1.12-0.454-1.56-0.032c-0.44,0.422-0.454,1.121-0.032,1.561
					l8.963,9.337c-0.108,0.653-0.216,1.307-0.326,1.963l-3.104-3.355c-0.414-0.448-1.112-0.474-1.559-0.061
					c-0.447,0.414-0.474,1.112-0.06,1.559l4.261,4.605c-0.266,1.565-0.536,3.136-0.812,4.713l-6.644-6.041
					c-0.451-0.41-1.149-0.377-1.559,0.074c-0.41,0.451-0.377,1.149,0.074,1.559l7.676,6.979c-0.321,1.811-0.649,3.627-0.983,5.445
					c-0.092,0.503,0.172,0.989,0.614,1.197c0.084,0.04,0.175,0.07,0.272,0.087c0.599,0.11,1.175-0.286,1.285-0.886
					c0.343-1.866,0.679-3.73,1.009-5.589l9.581-6.261C151.632,376.821,151.775,376.137,151.441,375.627z"/>
			</g>
			<g>
				<path style="fill:#6DA1A4;" d="M135.202,390.062c0,0-14.04,8.749-19.914,8.126c-5.874-0.623-1.197-5.12-4.629-6.541
					c-3.432-1.421-14.101,3.71-18.45,1.105c-4.349-2.605,2.051-7.745-2.394-10.239c-4.445-2.494-15.647,3.924-22.682,0.156
					c-7.034-3.767,1.001-7.878,2.148-10.771c1.147-2.892-3.365-4.861-11.554-4.383c-8.189,0.479-15.697-4.088-16-6.877
					c-0.302-2.789,7.421-2.506,6.896-5.487c-0.524-2.981-18.811-5.428-17.477-13.017c1.334-7.59,15.47-3.495,20.84-1.171
					c5.37,2.324-4.244-6.985-4.628-9.456c-0.384-2.471,4.144-6.124,14.898,4.561c10.753,10.685,14.023,12.743,16.235,10.191
					c2.213-2.552-4.607-7.688-2.616-10.432c1.991-2.744,9.942,2.207,16.176,12.277c6.234,10.07,11.494,6.469,9.764,2.636
					c-1.73-3.833,1.933-9.402,7.561-1.995c5.628,7.407,5.915,12.903,8.244,14.924c2.33,2.02,2.124-3.794,5.409-4.445
					c3.285-0.65,12.668,15.65,15.345,21.08C141.051,385.738,135.202,390.062,135.202,390.062z"/>
				<path style="fill:#528E8D;" d="M124.6,368.447c-0.698,0.218-1.083,0.961-0.864,1.657l3.373,10.714
					c-1.566-0.749-3.129-1.493-4.686-2.23l-2.62-7.526c-0.24-0.689-0.993-1.053-1.683-0.814c-0.687,0.24-1.053,0.993-0.813,1.683
					l1.768,5.078c-0.631-0.296-1.261-0.592-1.89-0.886l-6.333-15.067c-0.283-0.673-1.058-0.989-1.73-0.706
					c-0.672,0.283-0.989,1.057-0.707,1.73l5.204,12.381c-2.597-1.205-5.165-2.387-7.7-3.545l-4.306-9.67
					c-0.297-0.667-1.078-0.967-1.745-0.67c-0.668,0.295-0.968,1.078-0.67,1.745l3.092,6.943c-1.804-0.818-3.588-1.623-5.347-2.413
					l-8.964-17.467c-0.333-0.649-1.13-0.906-1.779-0.572c-0.65,0.332-0.905,1.129-0.572,1.779l7.46,14.536
					c-2.847-1.269-5.62-2.494-8.303-3.672l-5.463-8.299c-0.401-0.61-1.221-0.779-1.831-0.378c-0.604,0.4-0.778,1.221-0.377,1.831
					l3.228,4.904c-1.752-0.763-3.457-1.502-5.113-2.216l-9.633-14.241c-0.409-0.604-1.23-0.763-1.835-0.354
					c-0.602,0.413-0.763,1.231-0.354,1.836l7.324,10.827c-2.04-0.873-3.986-1.701-5.825-2.479l-5.503-8.345
					c-0.402-0.609-1.222-0.778-1.831-0.376c-0.608,0.403-0.778,1.221-0.376,1.831l3.325,5.042
					c-9.214-3.868-14.865-6.134-15.023-6.197c-0.678-0.271-1.448,0.057-1.718,0.736c-0.271,0.678,0.059,1.447,0.736,1.717
					c0.161,0.065,6.044,2.424,15.599,6.44l-5.494,1.654c-0.697,0.21-1.095,0.947-0.884,1.646c0.21,0.699,0.947,1.095,1.646,0.884
					l8.55-2.573c2.01,0.851,4.145,1.76,6.392,2.723l-11.197,3.028c-0.705,0.19-1.121,0.916-0.931,1.621
					c0.19,0.704,0.916,1.121,1.62,0.93l14.416-3.899c1.877,0.81,3.817,1.651,5.817,2.523l-6.894,2.067
					c-0.699,0.209-1.096,0.946-0.887,1.645c0.21,0.7,0.947,1.096,1.646,0.887l9.878-2.961c2.872,1.26,5.845,2.575,8.903,3.94
					l-14.447,6.293c-0.668,0.292-0.975,1.071-0.684,1.739c0.291,0.669,1.07,0.975,1.739,0.684l16.656-7.256
					c1.991,0.894,4.012,1.806,6.06,2.736l-6.79,3.908c-0.635,0.364-0.85,1.173-0.486,1.805c0.364,0.633,1.173,0.85,1.805,0.486
					l8.428-4.851c2.706,1.236,5.452,2.501,8.228,3.792l-11.923,6.376c-0.644,0.345-0.886,1.145-0.542,1.788
					c0.345,0.644,1.146,0.887,1.789,0.543l13.67-7.311c0.718,0.336,1.437,0.673,2.158,1.012l-4.874,2.493
					c-0.65,0.332-0.907,1.129-0.575,1.778c0.333,0.65,1.129,0.907,1.778,0.575l6.69-3.421c1.718,0.813,3.443,1.634,5.172,2.463
					l-9.118,5.704c-0.619,0.388-0.806,1.203-0.419,1.822c0.387,0.619,1.202,0.806,1.822,0.42l10.534-6.59
					c1.984,0.957,3.972,1.923,5.96,2.897c0.55,0.269,1.196,0.122,1.579-0.32c0.073-0.085,0.138-0.18,0.189-0.285
					c0.321-0.655,0.05-1.447-0.605-1.768c-2.041-1-4.081-1.991-6.117-2.973l-4.116-13.076
					C126.038,368.614,125.296,368.228,124.6,368.447z"/>
			</g>
			<g>
				<path style="fill:#6DA1A4;" d="M130.847,390.366c0,0-15.204-6.52-18.05-11.695s3.517-3.909,2.721-7.537
					c-0.796-3.629-11.104-9.45-11.452-14.508c-0.348-5.058,7.528-2.744,7.033-7.817s-12.164-10.596-13.093-18.522
					c-0.929-7.925,7.037-3.682,10.066-4.394c3.029-0.712,2.066-5.539-3.008-11.986c-5.074-6.446-5.618-15.217-3.502-17.059
					c2.116-1.842,6.298,4.657,8.444,2.522c2.147-2.135-6.299-18.538,0.691-21.782c6.99-3.244,11.71,10.696,12.872,16.431
					c1.162,5.735,3.305-7.475,5.113-9.202c1.808-1.728,7.394-0.1,4.773,14.831s-2.441,18.79,0.918,19.147
					c3.358,0.357,3.675-8.174,7.064-8.109c3.389,0.065,3.872,9.42-0.828,20.29c-4.7,10.871,1.262,13.129,3.418,9.519
					s8.82-3.788,5.959,5.064c-2.861,8.851-7.207,12.229-7.533,15.295c-0.326,3.066,4.328-0.426,6.739,1.898
					c2.411,2.324-5.6,19.34-8.527,24.64C137.738,392.694,130.847,390.366,130.847,390.366z"/>
				<path style="fill:#528E8D;" d="M142.522,369.312c-0.578-0.448-1.407-0.339-1.854,0.238l-6.863,8.892
					c-0.28-1.714-0.563-3.421-0.849-5.119l4.678-6.452c0.428-0.59,0.296-1.417-0.294-1.846c-0.59-0.426-1.417-0.297-1.846,0.294
					l-3.156,4.353c-0.118-0.687-0.235-1.373-0.353-2.057l8.743-13.808c0.391-0.617,0.207-1.433-0.41-1.823
					c-0.616-0.39-1.433-0.208-1.824,0.409l-7.185,11.347c-0.495-2.819-0.994-5.603-1.492-8.344l5.474-9.06
					c0.377-0.625,0.177-1.437-0.448-1.814c-0.624-0.38-1.437-0.178-1.815,0.447l-3.93,6.505c-0.36-1.948-0.719-3.872-1.077-5.767
					l9.209-17.34c0.342-0.645,0.097-1.445-0.547-1.787c-0.644-0.344-1.444-0.097-1.787,0.547l-7.663,14.43
					c-0.586-3.062-1.166-6.037-1.733-8.912l3.687-9.226c0.271-0.678-0.059-1.447-0.737-1.718c-0.674-0.267-1.447,0.06-1.718,0.737
					l-2.179,5.452c-0.376-1.873-0.744-3.695-1.104-5.462l6.179-16.044c0.262-0.681-0.077-1.445-0.758-1.708
					c-0.683-0.258-1.446,0.077-1.708,0.759l-4.698,12.198c-0.45-2.173-0.883-4.242-1.295-6.197l3.702-9.285
					c0.27-0.678-0.06-1.447-0.738-1.717c-0.678-0.269-1.447,0.06-1.717,0.738l-2.237,5.61c-2.093-9.771-3.464-15.704-3.502-15.869
					c-0.165-0.712-0.875-1.156-1.586-0.989c-0.711,0.165-1.153,0.875-0.988,1.586c0.039,0.169,1.466,6.345,3.633,16.481
					l-4.497-3.563c-0.571-0.452-1.403-0.357-1.856,0.215c-0.453,0.572-0.357,1.403,0.215,1.856l6.999,5.545
					c0.451,2.135,0.925,4.407,1.42,6.801l-8.885-7.456c-0.559-0.47-1.393-0.396-1.862,0.163c-0.469,0.558-0.396,1.392,0.163,1.861
					l11.439,9.6c0.408,2.003,0.827,4.076,1.255,6.215l-5.637-4.476c-0.571-0.454-1.403-0.359-1.856,0.213
					c-0.454,0.572-0.359,1.403,0.213,1.857l8.076,6.412c0.607,3.077,1.228,6.268,1.856,9.558l-13.422-8.257
					c-0.621-0.381-1.436-0.188-1.818,0.433c-0.382,0.621-0.189,1.435,0.433,1.818l15.474,9.519c0.404,2.144,0.811,4.324,1.218,6.536
					l-7.087-3.338c-0.662-0.313-1.448-0.027-1.759,0.632c-0.311,0.661-0.028,1.448,0.632,1.759l8.798,4.143
					c0.532,2.927,1.064,5.903,1.592,8.918l-12.047-6.139c-0.651-0.331-1.446-0.072-1.777,0.578
					c-0.331,0.651-0.073,1.447,0.578,1.778l13.813,7.038c0.135,0.781,0.269,1.564,0.403,2.349l-4.831-2.575
					c-0.645-0.344-1.445-0.099-1.788,0.544c-0.343,0.645-0.099,1.445,0.545,1.788l6.631,3.534c0.315,1.875,0.627,3.759,0.936,5.651
					l-9.892-4.221c-0.672-0.286-1.448,0.026-1.734,0.697c-0.286,0.671,0.026,1.448,0.697,1.734l11.428,4.877
					c0.349,2.175,0.692,4.358,1.029,6.546c0.094,0.605,0.584,1.051,1.166,1.113c0.111,0.012,0.226,0.01,0.342-0.008
					c0.721-0.111,1.216-0.786,1.105-1.508c-0.346-2.246-0.699-4.487-1.057-6.719l8.376-10.852
					C143.207,370.587,143.101,369.758,142.522,369.312z"/>
			</g>
		</g>
		<g>
			<defs>
				<path id="SVGID_1_" d="M442.38,396.936h-59.105c-16.678,0-30.198-13.52-30.198-30.198v0c0-30.509,24.732-55.241,55.241-55.241
					h9.019c30.509,0,55.241,24.732,55.241,55.241v0C472.578,383.416,459.058,396.936,442.38,396.936z"/>
			</defs>
			<clipPath id="SVGID_00000121986359001656326620000016990565126458417043_">
				<use xlink:href="#SVGID_1_"  style="overflow:visible;"/>
			</clipPath>
			<g style="clip-path:url(#SVGID_00000121986359001656326620000016990565126458417043_);">
				<g>
					<path style="fill:#18203D;" d="M406.479,390.209c0,0-9.267,4.97-13.014-6.594c-3.747-11.565,4.206-19.293,14.011-22.503
						c9.804-3.21,17.306-22.056,28.695-21.501c11.389,0.555,2.849,17.903-1.005,28.592c-3.855,10.689-4.184,20.557-8.639,25.947
						C422.071,399.539,410.728,401.512,406.479,390.209z"/>
					<path style="fill:#18203D;" d="M435.287,353.291c-0.185-0.513-0.751-0.777-1.264-0.592l-2.794,1.01
						c2.32-3.223,3.743-5.073,3.808-5.157c0.334-0.43,0.255-1.051-0.176-1.384c-0.431-0.333-1.051-0.254-1.384,0.175
						c-0.067,0.086-1.554,2.019-3.972,5.384l-0.048-2.659c-0.01-0.546-0.459-0.979-1.004-0.969c-0.546,0.01-0.979,0.459-0.969,1.005
						l0.095,5.332c-1.945,2.764-4.272,6.155-6.824,10.039l-0.16-8.935c-0.01-0.546-0.459-0.979-1.005-0.969
						c-0.546,0.01-0.979,0.459-0.969,1.004l0.212,11.853c-1.035,1.608-2.1,3.287-3.184,5.028l-0.615-5.959
						c-0.056-0.543-0.535-0.949-1.083-0.88c-0.542,0.056-0.936,0.54-0.88,1.083l0.879,8.513c-1.614,2.645-3.259,5.415-4.908,8.288
						c-0.834-3.234-2.353-9.49-3.368-13.738c-0.126-0.53-0.662-0.857-1.189-0.731c-0.53,0.126-0.858,0.659-0.731,1.189
						c2.424,10.152,3.367,14.1,3.932,15.667c-6.946,12.344-13.793,26.384-18.366,40.3c-0.17,0.518,0.112,1.076,0.63,1.246
						c0.109,0.036,0.218,0.051,0.326,0.049c0.408-0.007,0.786-0.269,0.92-0.679c4.539-13.813,11.344-27.757,18.247-40.018
						c1.783-0.497,10.454-2.401,15.9-3.568c0.533-0.115,0.873-0.639,0.758-1.172c-0.115-0.532-0.633-0.874-1.172-0.758
						c-7.7,1.651-11.856,2.566-14.135,3.123c1.629-2.839,3.255-5.576,4.851-8.19l9.606-2.984c0.521-0.162,0.811-0.714,0.65-1.235
						c-0.161-0.521-0.714-0.815-1.235-0.65l-7.446,2.312c1.127-1.813,2.234-3.559,3.309-5.228l11.491-5.037
						c0.499-0.219,0.727-0.801,0.508-1.3c-0.219-0.5-0.802-0.726-1.3-0.508l-8.734,3.829c2.515-3.824,4.808-7.164,6.725-9.885
						l5.477-1.98C435.207,354.37,435.473,353.804,435.287,353.291z"/>
				</g>
				<g>
					<path style="fill:#18203D;" d="M382.856,385.067c0,0-1.644,9.006-11.551,5.283c-9.907-3.723-10.854-13.332-7.72-21.749
						c3.134-8.417-5.628-23.75,0.929-31.203s13.735,7.773,18.922,16.197c5.187,8.424,11.727,14.002,12.98,19.96
						C397.668,379.513,392.857,388.307,382.856,385.067z"/>
					<path style="fill:#18203D;" d="M373.35,345.424c-0.449-0.152-0.936,0.089-1.089,0.539l-0.828,2.45
						c-0.936-3.328-1.423-5.301-1.445-5.391c-0.112-0.461-0.577-0.744-1.038-0.631c-0.461,0.113-0.743,0.578-0.632,1.038
						c0.022,0.092,0.531,2.154,1.511,5.625l-1.836-1.41c-0.377-0.289-0.916-0.219-1.205,0.158c-0.289,0.377-0.219,0.916,0.158,1.205
						l3.682,2.828c0.827,2.824,1.873,6.248,3.133,10.093l-6.171-4.739c-0.377-0.289-0.916-0.219-1.205,0.158
						c-0.289,0.377-0.219,0.916,0.158,1.205l8.186,6.287c0.533,1.577,1.099,3.213,1.696,4.896l-4.391-2.814
						c-0.4-0.256-0.936-0.151-1.187,0.26c-0.256,0.399-0.14,0.93,0.26,1.187l6.273,4.021c0.925,2.534,1.918,5.157,2.98,7.838
						c-2.654-1.187-7.738-3.547-11.181-5.161c-0.429-0.202-0.943-0.014-1.143,0.413c-0.202,0.429-0.016,0.942,0.413,1.143
						c8.227,3.857,11.427,5.357,12.8,5.823c4.636,11.426,10.48,23.706,17.474,34.37c0.26,0.397,0.793,0.508,1.19,0.247
						c0.083-0.055,0.153-0.121,0.21-0.195c0.216-0.281,0.243-0.681,0.037-0.995c-6.942-10.585-12.744-22.783-17.347-34.135
						c0.629-1.483,4.037-8.421,6.197-12.762c0.211-0.425,0.038-0.941-0.387-1.152c-0.424-0.211-0.938-0.043-1.152,0.387
						c-3.053,6.139-4.685,9.465-5.542,11.319c-1.049-2.65-2.03-5.242-2.944-7.747l3.18-8.159c0.172-0.442-0.046-0.94-0.488-1.113
						c-0.442-0.173-0.942,0.044-1.112,0.488l-2.465,6.324c-0.623-1.751-1.211-3.452-1.764-5.09l2.805-10.557
						c0.122-0.459-0.151-0.929-0.61-1.051c-0.46-0.122-0.929,0.152-1.051,0.609l-2.132,8.024c-1.239-3.788-2.269-7.16-3.082-9.942
						l1.623-4.804C374.041,346.063,373.799,345.575,373.35,345.424z"/>
				</g>
				<g>
					<path style="fill:#6DA1A4;" d="M425.005,383.648c0,0-8.98,1.784-9.161-8.798c-0.182-10.582,8.405-14.997,17.384-15.178
						c8.98-0.182,20.015-13.969,29.357-10.614c9.343,3.356-2.176,15.631-8.102,23.553c-5.926,7.922-8.707,16.055-13.786,19.411
						C435.618,395.379,425.671,394.14,425.005,383.648z"/>
					<path style="fill:#528E8D;" d="M458.373,360.226c-0.023-0.474-0.427-0.838-0.902-0.814l-2.583,0.131
						c2.75-2.094,4.406-3.273,4.481-3.327c0.387-0.273,0.479-0.81,0.205-1.197c-0.274-0.387-0.81-0.478-1.197-0.206
						c-0.078,0.055-1.807,1.286-4.676,3.474l0.636-2.226c0.13-0.457-0.134-0.932-0.59-1.062c-0.457-0.13-0.932,0.133-1.062,0.59
						l-1.275,4.464c-2.322,1.807-5.121,4.04-8.234,6.626l2.137-7.481c0.13-0.457-0.134-0.932-0.59-1.062
						c-0.457-0.13-0.932,0.134-1.062,0.59l-2.835,9.924c-1.271,1.076-2.584,2.204-3.929,3.378l1.002-5.118
						c0.091-0.466-0.204-0.926-0.678-1.008c-0.465-0.091-0.917,0.212-1.008,0.678l-1.431,7.313c-2.016,1.792-4.09,3.681-6.192,5.655
						c0.127-2.905,0.452-8.5,0.686-12.296c0.03-0.473-0.334-0.882-0.805-0.911c-0.473-0.03-0.882,0.331-0.911,0.805
						c-0.561,9.069-0.779,12.596-0.706,14.045c-8.92,8.514-18.189,18.465-25.533,28.892c-0.273,0.388-0.18,0.924,0.208,1.197
						c0.081,0.057,0.168,0.098,0.259,0.124c0.341,0.098,0.723-0.024,0.939-0.331c7.289-10.349,16.499-20.231,25.362-28.687
						c1.611,0.039,9.315,0.657,14.146,1.068c0.473,0.04,0.889-0.311,0.929-0.784c0.04-0.472-0.305-0.888-0.784-0.929
						c-6.831-0.581-10.525-0.876-12.564-0.991c2.078-1.95,4.127-3.816,6.12-5.587l8.757-0.044c0.475-0.002,0.857-0.389,0.855-0.863
						c-0.002-0.474-0.387-0.859-0.863-0.855l-6.787,0.034c1.4-1.224,2.764-2.396,4.084-3.512l10.848-1.275
						c0.471-0.056,0.809-0.482,0.753-0.953c-0.055-0.472-0.483-0.808-0.953-0.753l-8.246,0.969c3.066-2.545,5.824-4.744,8.111-6.523
						l5.064-0.257C458.033,361.104,458.397,360.7,458.373,360.226z"/>
				</g>
				<g>
					<path style="fill:#6DA1A4;" d="M396.279,371.048c0,0-7.563,7.209-14.207-2.878c-6.644-10.087-1.068-19.591,7.475-25.255
						c8.543-5.664,10.749-25.698,21.805-28.175c11.055-2.477,7.458,16.395,6.59,27.652c-0.868,11.257,1.423,20.795-1.42,27.135
						C413.678,375.866,403.334,380.752,396.279,371.048z"/>
					<path style="fill:#528E8D;" d="M414.119,328.078c-0.312-0.442-0.924-0.546-1.367-0.234l-2.409,1.705
						c1.37-3.7,2.245-5.848,2.285-5.946c0.206-0.5-0.033-1.074-0.534-1.279c-0.501-0.206-1.073,0.034-1.28,0.534
						c-0.041,0.1-0.955,2.345-2.382,6.206l-0.748-2.534c-0.154-0.52-0.698-0.816-1.218-0.663c-0.52,0.153-0.816,0.698-0.663,1.218
						l1.5,5.082c-1.133,3.161-2.466,7.024-3.885,11.419l-2.514-8.516c-0.154-0.52-0.698-0.816-1.218-0.663
						c-0.52,0.153-0.816,0.698-0.663,1.218l3.334,11.297c-0.567,1.813-1.143,3.703-1.721,5.657l-2.163-5.545
						c-0.197-0.505-0.763-0.767-1.27-0.557c-0.504,0.197-0.754,0.765-0.557,1.27l3.091,7.922c-0.848,2.96-1.692,6.047-2.511,9.235
						c-1.653-2.877-4.761-8.468-6.855-12.27c-0.261-0.474-0.861-0.646-1.332-0.386c-0.474,0.261-0.647,0.858-0.386,1.332
						c5.004,9.083,6.95,12.616,7.905,13.967c-3.392,13.658-6.241,28.914-6.945,43.452c-0.026,0.541,0.391,1.001,0.932,1.027
						c0.113,0.005,0.222-0.009,0.325-0.039c0.389-0.115,0.682-0.465,0.702-0.893c0.699-14.429,3.533-29.583,6.906-43.15
						c1.576-0.947,9.379-5.061,14.286-7.618c0.48-0.251,0.667-0.843,0.416-1.323c-0.25-0.479-0.837-0.67-1.323-0.416
						c-6.939,3.616-10.678,5.59-12.714,6.726c0.811-3.15,1.645-6.201,2.483-9.126l8.412-5.395c0.456-0.292,0.589-0.899,0.296-1.355
						c-0.292-0.456-0.899-0.592-1.355-0.296l-6.521,4.181c0.601-2.035,1.199-3.999,1.789-5.882l9.675-7.861
						c0.42-0.342,0.485-0.959,0.143-1.379c-0.342-0.421-0.96-0.484-1.379-0.143l-7.354,5.975c1.399-4.327,2.713-8.132,3.829-11.245
						l4.723-3.344C414.327,329.132,414.432,328.519,414.119,328.078z"/>
				</g>
			</g>
		</g>
		<g>
			<g>
				<g>
					<path style="fill:#5A89C6;" d="M184.173,391.357h-34.462c-1.391,0-2.752-0.654-3.465-1.849
						c-1.013-1.699-0.578-3.814,0.908-4.985c18.58-14.645,12.924-57.472,11.835-64.603c-0.086-0.564,0.293-1.089,0.855-1.188
						l5.478-0.968c0.578-0.102,1.126,0.283,1.218,0.863c1.098,6.932,6.189,44.373-8.163,64.957c-0.035,0.05,0,0.117,0.061,0.117
						h25.735c0.579,0,1.049,0.47,1.049,1.049v5.557C185.222,390.888,184.752,391.357,184.173,391.357z"/>
				</g>
				<path style="fill:#5A89C6;" d="M182.564,375.19l-2.533,0.424c-2.59,0.434-5.041-1.314-5.475-3.905l-21.558-128.763
					c-0.434-2.59,1.314-5.041,3.905-5.475l2.533-0.424c2.59-0.434,5.041,1.315,5.475,3.905l21.558,128.763
					C186.902,372.305,185.154,374.756,182.564,375.19z"/>
			</g>
			<path style="fill:#5A89C6;" d="M242.524,391.357h-45.312c-2.137,0-3.87-1.733-3.87-3.87v-2.276c0-2.137,1.732-3.87,3.87-3.87
				h45.312c2.137,0,3.87,1.732,3.87,3.87v2.276C246.394,389.625,244.662,391.357,242.524,391.357z"/>
			<path style="fill:#EABC32;" d="M424.506,399.706h-317.93c-2.545,0-4.608-2.063-4.608-4.608l0,0c0-2.545,2.063-4.608,4.608-4.608
				h317.93c2.545,0,4.608,2.063,4.608,4.608l0,0C429.113,397.643,427.051,399.706,424.506,399.706z"/>
			<g>
				<path style="fill:#E5D157;" d="M408.539,368.763c-3.72,0-6.737,3.016-6.737,6.744c0,3.721,3.016,6.745,6.737,6.745
					c3.728,0,6.744-3.024,6.744-6.745C415.283,371.779,412.267,368.763,408.539,368.763z M408.539,380.147
					c-2.565,0-4.639-2.075-4.639-4.639c0-2.565,2.075-4.647,4.639-4.647c2.565,0,4.647,2.082,4.647,4.647
					C413.186,378.072,411.104,380.147,408.539,380.147z"/>
				<path style="fill:#E5D157;" d="M404.214,370.052c0,0-0.207,18.044-15.793,20.44h-3.904c-15.579-2.396-15.793-20.44-15.793-20.44
					l17.745,1.286L404.214,370.052z"/>
				<path style="fill:#FFEB88;" d="M404.214,370.054c0,1.404-7.944,2.543-17.743,2.543c-9.799,0-17.743-1.138-17.743-2.543
					c0-1.404,7.944-2.543,17.743-2.543C396.27,367.511,404.214,368.65,404.214,370.054z"/>
				<path style="fill:#18203D;" d="M399.385,370.054c0,0.711-5.782,1.287-12.915,1.287c-7.133,0-12.915-0.576-12.915-1.287
					c0-0.711,5.782-1.287,12.915-1.287C393.603,368.767,399.385,369.343,399.385,370.054z"/>
			</g>
		</g>
		<g>
			<path style="fill:#FFFFFF;" d="M146.718,272.321l-9.049,5.267v11.116c0,3.652-2.963,6.614-6.622,6.614h-53.94
				c-3.652,0-6.622-2.963-6.622-6.614v-32.765c0-3.652,2.97-6.622,6.622-6.622h53.94c3.659,0,6.622,2.97,6.622,6.622v11.108
				L146.718,272.321z"/>
			<g>
				<path style="fill:#E5D157;" d="M121.13,285.671H87.027c-1.351,0-2.447-1.095-2.447-2.447v-21.809
					c0-1.351,1.095-2.447,2.447-2.447h34.103c1.351,0,2.447,1.095,2.447,2.447v21.809
					C123.577,284.576,122.481,285.671,121.13,285.671z"/>
				
					<polyline style="fill:none;stroke:#FFFFFF;stroke-width:2;stroke-linecap:round;stroke-linejoin:round;stroke-miterlimit:10;" points="
					120.32,263.058 104.079,272.32 87.837,263.058 				"/>
			</g>
		</g>
		<g>
			<path style="fill:#E5D157;" d="M182.865,174.639v32.765c0,3.652-2.963,6.614-6.622,6.614H154.54l-5.275,9.049l-5.267-9.049
				h-21.695c-3.652,0-6.622-2.963-6.622-6.614v-32.765c0-3.652,2.97-6.622,6.622-6.622h53.94
				C179.903,168.017,182.865,170.987,182.865,174.639z"/>
			<g>
				<path style="fill:#FFFFFF;" d="M137.917,191.204c0,2.396-1.942,4.338-4.338,4.338c-2.396,0-4.338-1.942-4.338-4.338
					c0-2.396,1.942-4.338,4.338-4.338C135.975,186.866,137.917,188.808,137.917,191.204z"/>
				<path style="fill:#FFFFFF;" d="M153.611,191.204c0,2.396-1.942,4.338-4.338,4.338s-4.338-1.942-4.338-4.338
					c0-2.396,1.942-4.338,4.338-4.338S153.611,188.808,153.611,191.204z"/>
				<path style="fill:#FFFFFF;" d="M169.305,191.204c0,2.396-1.942,4.338-4.338,4.338c-2.396,0-4.338-1.942-4.338-4.338
					c0-2.396,1.942-4.338,4.338-4.338C167.363,186.866,169.305,188.808,169.305,191.204z"/>
			</g>
		</g>
		<g>
			<g>
				<path style="fill:#D15735;" d="M234.327,138.333l-2.57,0.774c-0.611,0.184-1.255-0.162-1.439-0.773l-3.095-10.28
					c-0.184-0.611,0.162-1.255,0.773-1.439l2.57-0.774c0.611-0.184,1.255,0.162,1.438,0.773l3.095,10.28
					C235.283,137.506,234.937,138.15,234.327,138.333z"/>
				<path style="fill:#D15735;" d="M224.274,143.567c-0.323,2.297-0.42,5.409,0.535,8.58c0.956,3.177,2.756,5.717,4.293,7.454
					c1.484,1.668,3.808,2.298,5.939,1.657l1.999-0.602l3.173,10.538c0,0-15.69,1.662-21.384-17.247
					c-5.692-18.903,8.307-26.181,8.307-26.181l3.173,10.539l-1.999,0.602C226.179,139.549,224.59,141.358,224.274,143.567z"/>
				<path style="fill:#D15735;" d="M240.373,158.414l-2.57,0.774c-0.611,0.184-0.957,0.828-0.773,1.438l3.095,10.28
					c0.184,0.611,0.828,0.956,1.439,0.773l2.57-0.774c0.611-0.184,0.957-0.828,0.773-1.438l-3.095-10.28
					C241.628,158.576,240.984,158.23,240.373,158.414z"/>
			</g>
			<path style="fill:#18203D;" d="M215.478,175.677l2.048-3.639c-3.24-1.536-14.663-7.868-15.946-20.911
				c-1.613-16.437,8.001-25.882,8.001-25.882l9.025,5.091c0,0-9.137,8.106-9.137,20.237c0,11.458,6.893,17.334,9.396,19.087
				l1.823-3.24l6.241,9.256H215.478z"/>
			<path style="fill:#18203D;" d="M252.255,122.15l-2.048,3.639c3.24,1.536,14.663,7.868,15.946,20.911
				c1.613,16.437-8.001,25.882-8.001,25.882l-9.025-5.091c0,0,9.137-8.106,9.137-20.237c0-11.458-6.893-17.334-9.396-19.087
				l-1.823,3.24l-6.241-9.256H252.255z"/>
		</g>
		<g>
			<path style="fill:#FFFFFF;" d="M421.317,283.037v35.376c0,3.621-2.932,6.553-6.553,6.553h-35.368
				c-3.621,0-6.561-2.932-6.561-6.553v-35.376c0-3.621,2.94-6.553,6.561-6.553h35.368
				C418.385,276.484,421.317,279.416,421.317,283.037z"/>
			
				<ellipse transform="matrix(0.7071 -0.7071 0.7071 0.7071 -92.1893 367.1363)" style="fill:#E5D157;" cx="397.078" cy="294.85" rx="8.706" ry="8.706"/>
			<path style="fill:#E5D157;" d="M411.962,321.437v3.529H382.19v-3.529c0-8.222,6.668-14.882,14.89-14.882
				c4.111,0,7.832,1.661,10.526,4.356S411.962,317.326,411.962,321.437z"/>
		</g>
		<g>
			<g>
				<path style="fill:#DB9431;" d="M392.486,246.82c1.433-1.354,3.691-1.29,5.046,0.142c1.354,1.433,1.29,3.691-0.142,5.046
					c-1.433,1.354-3.692,1.29-5.045-0.143C390.99,250.433,391.053,248.174,392.486,246.82z"/>
				<path style="fill:#447777;" d="M385.725,224.441c1.203-1.137,3.101-1.084,4.238,0.12c1.137,1.203,1.084,3.101-0.12,4.238
					c-1.203,1.137-3.101,1.084-4.238-0.12C384.468,227.475,384.522,225.578,385.725,224.441z"/>
				<path style="fill:#C9414E;" d="M366.538,221.789c0.76-0.718,1.957-0.684,2.675,0.076c0.718,0.759,0.684,1.957-0.076,2.675
					c-0.759,0.718-1.957,0.684-2.675-0.076C365.744,223.705,365.778,222.507,366.538,221.789z"/>
			</g>
			<g>
				<path style="fill:#DB9431;" d="M200.63,258.074c-1.872-0.618-2.889-2.636-2.271-4.508c0.618-1.872,2.636-2.889,4.508-2.271
					c1.872,0.618,2.889,2.636,2.271,4.508C204.52,257.675,202.502,258.692,200.63,258.074z"/>
				<path style="fill:#447777;" d="M186.158,263.649c-1.572-0.519-2.426-2.214-1.907-3.786c0.519-1.572,2.214-2.426,3.786-1.907
					s2.426,2.214,1.908,3.786C189.426,263.314,187.731,264.168,186.158,263.649z"/>
				<path style="fill:#C9414E;" d="M192.704,280.055c-0.992-0.327-1.531-1.397-1.204-2.39s1.398-1.531,2.39-1.204
					c0.992,0.328,1.531,1.398,1.204,2.39C194.766,279.844,193.696,280.383,192.704,280.055z"/>
			</g>
		</g>
	</g>
</g>
</svg>
